<?xml version="1.0" standalone="no"?>
<!DOCTYPE svg PUBLIC "-//W3C//DTD SVG 20010904//EN"
 "http://www.w3.org/TR/2001/REC-SVG-20010904/DTD/svg10.dtd">
<svg version="1.0" xmlns="http://www.w3.org/2000/svg"
 width="400.000000pt" height="400.000000pt" viewBox="0 0 400.000000 400.000000"
 preserveAspectRatio="xMidYMid meet">
<metadata>
Created by potrace 1.14, written by Peter Selinger 2001-2017
</metadata>
<g transform="translate(0.000000,400.000000) scale(0.100000,-0.100000)"
fill="#000000" stroke="none">
<path d="M0 2000 l0 -2000 1728 0 1727 0 1 25 c1 14 -1 23 -5 20 -4 -2 -18 25
-31 61 -23 67 -48 82 -42 26 2 -18 1 -32 -1 -32 -3 0 -10 37 -16 83 -12 83
-62 245 -87 282 -16 23 -18 35 -4 35 21 0 66 -90 107 -213 24 -71 59 -157 78
-192 26 -46 32 -65 23 -68 -10 -4 -10 -8 2 -16 8 -6 114 -10 267 -11 l253 -1
0 2001 0 2000 -2000 0 -2000 0 0 -2000z m1930 1923 c36 -17 137 -54 225 -83
88 -28 165 -56 170 -62 7 -7 2 -8 -14 -3 -12 4 -51 15 -85 25 -144 42 -376
138 -376 156 0 3 3 4 8 2 4 -2 36 -18 72 -35z m554 -123 c67 -63 135 -210 96
-210 -5 0 -10 9 -10 19 0 11 -13 35 -30 53 -16 18 -30 39 -30 47 0 8 -3 12 -6
8 -11 -11 -62 47 -98 111 -20 35 -36 67 -36 70 0 6 27 -17 114 -98z m-158 19
c4 -8 1 -8 -14 0 -12 6 -24 16 -28 22 -4 8 -1 8 14 0 12 -6 24 -16 28 -22z
m-526 -5 c84 -17 108 -30 40 -21 -46 7 -143 34 -125 36 6 1 44 -6 85 -15z
m1043 -126 c-5 -92 -27 -168 -49 -168 -8 0 -14 8 -14 17 0 15 -2 14 -15 -3
-23 -31 -19 3 10 80 14 37 23 71 20 76 -3 5 1 15 9 22 7 8 17 24 20 36 15 47
24 19 19 -60z m-1588 27 c55 -8 118 -16 140 -18 25 -2 15 -4 -28 -5 -66 -2
-196 19 -240 39 -21 9 -21 9 3 4 14 -3 70 -12 125 -20z m295 -5 c0 -5 -4 -10
-10 -10 -5 0 -10 5 -10 10 0 6 5 10 10 10 6 0 10 -4 10 -10z m1209 -61 c-43
-40 -108 -83 -114 -77 -3 2 27 30 67 61 75 59 107 70 47 16z m-1664 -119 c-16
-4 -43 -8 -60 -8 -29 1 -29 1 5 8 19 4 46 7 60 8 22 0 22 -1 -5 -8z m-107 -17
c-10 -2 -28 -2 -40 0 -13 2 -5 4 17 4 22 1 32 -1 23 -4z m1807 -23 c-3 -5 -12
-10 -18 -10 -7 0 -6 4 3 10 19 12 23 12 15 0z m403 -12 c-4 -16 -40 -44 -51
-40 -5 1 -6 -2 -3 -6 3 -5 -4 -18 -17 -28 -19 -16 -20 -17 -8 -1 8 9 12 20 9
22 -4 4 -49 -25 -83 -53 -15 -12 -155 1 -163 15 -4 7 -32 19 -62 26 l-55 14
155 5 c156 5 167 7 278 57 1 0 1 -5 0 -11z m-1098 -73 c0 -7 -111 -37 -117
-32 -3 3 17 12 43 21 52 16 74 19 74 11z m-1188 -112 c-12 -2 -20 -8 -17 -13
4 -7 -55 -7 -95 0 -21 4 57 17 100 17 21 0 26 -1 12 -4z m2194 -77 c60 -25
134 -48 163 -52 81 -11 38 -27 -88 -32 -95 -4 -104 -3 -98 12 5 13 -5 22 -46
41 -28 14 -44 25 -34 25 24 0 21 9 -10 38 -16 13 -21 22 -13 19 8 -4 65 -26
126 -51z m-941 14 c-22 -10 -53 -21 -70 -25 -23 -4 -21 -2 10 10 22 9 49 21
60 25 39 17 39 8 0 -10z m39 -31 l-19 -22 33 5 c17 2 32 3 32 2 0 -8 -75 -46
-97 -49 -16 -2 -41 -9 -58 -15 -36 -14 -29 -6 54 54 70 51 84 57 55 25z
m-1349 -85 c-26 -20 -156 -86 -161 -82 -3 3 164 95 176 97 3 0 -4 -7 -15 -15z
m868 9 c-7 -2 -21 -2 -30 0 -10 3 -4 5 12 5 17 0 24 -2 18 -5z m531 -7 c-24
-17 -112 -41 -120 -33 -12 12 71 43 121 46 19 1 19 1 -1 -13z m806 -20 c26
-36 91 -149 115 -201 92 -198 115 -249 112 -252 -9 -8 -128 163 -126 181 0 5
-6 13 -15 18 -9 5 -14 13 -11 18 5 8 -21 61 -50 104 -8 10 -11 24 -9 31 3 7
-9 41 -26 75 -29 58 -24 72 10 26z m-750 -26 c0 -11 -26 -20 -56 -20 -14 0
-22 4 -19 10 3 6 0 10 -7 10 -10 0 -10 2 -1 8 15 10 83 3 83 -8z m845 10 c3
-5 2 -10 -4 -10 -5 0 -13 5 -16 10 -3 6 -2 10 4 10 5 0 13 -4 16 -10z m-805
-14 c0 -2 -7 -7 -16 -10 -8 -3 -12 -2 -9 4 6 10 25 14 25 6z m39 -38 c-13 -18
-26 -34 -30 -36 -4 -2 -17 -12 -30 -23 -12 -10 -27 -19 -33 -19 -11 1 99 110
110 110 3 0 -5 -15 -17 -32z m438 -112 c-5 -16 -28 -13 -40 5 -6 9 -7 25 -3
35 7 18 9 18 27 -5 11 -13 18 -29 16 -35z m-49 -26 c-2 -5 -9 -6 -17 -1 -9 6
-11 16 -7 27 7 18 8 18 17 1 6 -10 9 -22 7 -27z m-49 -22 c1 -5 -3 -8 -9 -8
-5 0 -10 12 -9 28 0 24 1 25 9 7 5 -11 9 -23 9 -27z m390 -105 c17 -35 36 -98
77 -253 8 -30 17 -64 20 -75 5 -20 5 -20 -11 0 -29 35 -63 110 -80 174 -15 59
-35 191 -28 191 1 0 11 -17 22 -37z m-587 -30 c7 -16 15 -82 18 -148 4 -93 8
-119 18 -117 13 3 12 -19 -5 -83 -3 -12 5 -6 20 15 14 19 38 51 52 70 14 19
32 44 40 55 7 11 16 17 19 14 3 -3 9 -41 13 -85 4 -52 9 -71 13 -54 5 20 8 16
13 -24 4 -27 7 -65 8 -85 l1 -36 14 34 c8 18 17 31 20 28 3 -3 1 -14 -5 -25
-6 -12 -11 -29 -11 -39 1 -11 9 -3 23 22 l21 40 6 -35 c3 -19 3 -43 -2 -52
-10 -22 -10 -41 0 -34 5 3 9 -15 9 -39 0 -25 -2 -45 -4 -45 -2 0 -20 19 -40
41 -21 23 -58 50 -83 61 -37 16 -139 35 -200 38 -9 0 -5 6 10 15 28 16 83 19
108 6 27 -13 72 -22 72 -14 0 5 -24 24 -52 43 -59 40 -69 41 -276 22 -73 -7
-137 -10 -142 -7 -9 5 -14 -7 -25 -63 -4 -18 -15 -38 -25 -44 -17 -11 -17 -13
-2 -25 16 -12 16 -14 -3 -29 -11 -9 -33 -23 -50 -31 -16 -8 -41 -20 -55 -28
l-24 -14 34 -15 c19 -8 31 -16 25 -16 -5 -1 -1 -5 10 -9 11 -5 -32 -8 -100 -8
-118 1 -121 1 -102 20 10 10 24 17 30 14 7 -2 26 2 42 9 28 12 29 13 6 14 -27
0 -61 26 -61 46 0 22 -21 27 -35 8 -22 -30 -46 -6 -69 67 l-20 64 -68 -3 c-37
-3 -68 0 -68 5 0 18 25 33 55 33 38 0 49 8 34 26 -8 9 -5 11 9 7 11 -2 23 0
26 6 4 6 15 11 24 11 9 0 30 7 46 15 35 18 53 19 58 3 3 -9 10 -7 23 6 19 18
19 18 -3 12 -28 -9 -28 1 1 24 19 16 24 17 38 4 14 -13 18 -13 29 1 11 13 10
14 -3 10 -8 -4 -18 -2 -22 4 -3 7 0 8 9 5 10 -4 16 -1 16 7 0 11 2 11 9 0 8
-12 16 -10 50 12 106 70 284 177 294 177 21 0 -60 -126 -127 -199 -70 -74 -6
-27 89 66 50 49 117 126 149 171 31 45 59 82 62 82 2 0 10 -12 16 -27z m-1792
13 c0 -2 -19 -19 -42 -37 l-43 -32 35 36 c31 32 50 44 50 33z m-90 -70 c0 -2
-8 -10 -17 -17 -16 -13 -17 -12 -4 4 13 16 21 21 21 13z m163 -121 c-3 -9 -8
-14 -10 -11 -3 3 -2 9 2 15 9 16 15 13 8 -4z m2291 -225 l-7 -45 -11 37 c-6
20 -14 39 -17 42 -3 3 -11 -29 -19 -72 -12 -68 -14 -73 -19 -42 l-6 35 -37
-77 c-20 -43 -42 -78 -47 -78 -6 0 -8 -7 -5 -15 4 -8 1 -15 -5 -15 -12 0 -14
11 -5 34 3 9 9 14 13 12 3 -2 33 53 65 123 32 69 63 131 69 136 7 7 8 6 3 -2
-3 -6 -2 -14 4 -18 6 -4 10 19 10 63 0 38 3 72 8 76 10 11 15 -139 6 -194z
m333 -27 c-2 -38 -3 -7 -3 67 0 74 1 105 3 68 2 -38 2 -98 0 -135z m-2091 63
c-32 -77 -49 -94 -42 -41 2 22 5 49 6 60 l1 20 9 -20 c7 -17 9 -16 9 10 1 23
4 27 11 15 8 -12 10 -10 10 10 0 15 3 21 10 14 6 -6 1 -30 -14 -68z m293 -36
c-53 -49 -55 -50 -104 -44 -77 9 -87 20 -41 39 37 16 169 53 190 54 6 1 -15
-21 -45 -49z m-961 -50 c26 -24 29 -72 7 -94 -16 -16 -21 -66 -6 -66 5 0 17
-7 25 -16 13 -13 16 -45 16 -194 l0 -179 60 -52 c33 -29 60 -58 60 -65 0 -8
-29 14 -65 47 l-65 62 0 176 c0 97 -4 181 -8 187 -4 6 -15 13 -24 17 -22 8
-24 63 -4 103 17 31 7 61 -22 70 -9 3 -26 9 -37 14 -17 7 -15 9 11 9 17 1 39
-8 52 -19z m-108 -50 c0 -5 -4 -10 -10 -10 -5 0 -10 5 -10 10 0 6 5 10 10 10
6 0 10 -4 10 -10z m710 -9 c-16 -31 -32 -36 -18 -7 6 14 15 26 20 26 5 0 4 -9
-2 -19z m1349 -6 c30 -8 59 -19 65 -26 8 -9 6 -10 -9 -4 -70 26 -203 30 -325
9 -49 -9 -32 5 27 21 65 18 176 18 242 0z m-329 -39 c0 -2 -7 -7 -16 -10 -8
-3 -12 -2 -9 4 6 10 25 14 25 6z m473 -49 c14 -17 28 -43 31 -57 5 -20 3 -19
-11 7 -10 18 -34 49 -53 69 -24 26 -28 34 -13 25 12 -6 33 -26 46 -44z m-974
-32 c28 -32 36 -45 29 -45 -2 0 -20 18 -42 40 -21 22 -34 40 -28 40 5 0 24
-16 41 -35z m571 25 c-8 -5 -19 -10 -25 -10 -5 0 -3 5 5 10 8 5 20 10 25 10 6
0 3 -5 -5 -10z m708 -27 c6 -16 20 -68 32 -116 l21 -88 -39 -62 c-21 -34 -49
-84 -63 -111 -13 -27 -42 -70 -64 -95 -22 -25 -57 -67 -78 -93 -34 -43 -43
-48 -78 -48 -21 0 -39 5 -39 10 0 6 10 10 21 10 17 0 19 3 10 14 -7 8 -9 25
-5 40 7 28 19 34 27 14 4 -8 6 -7 6 4 1 9 -7 19 -16 21 -15 4 -14 6 5 12 17 5
20 10 11 15 -8 5 10 19 50 40 55 27 65 37 87 83 23 50 33 117 17 117 -5 -1
-28 -5 -53 -10 l-45 -8 30 24 c17 13 35 24 40 24 6 0 19 19 28 43 l17 42 -3
-34 -4 -35 24 28 c19 22 24 24 29 12 3 -9 -3 -33 -14 -55 -11 -21 -25 -64 -31
-95 -6 -31 -15 -65 -21 -77 -7 -11 -9 -23 -7 -26 6 -6 47 102 47 123 0 9 12
30 26 47 20 24 24 37 19 61 -16 80 -17 99 -5 106 7 4 9 13 6 19 -17 27 -106
-51 -167 -147 l-29 -46 0 71 c0 71 0 72 39 105 36 30 135 88 152 88 4 0 11
-12 17 -27z m-1885 -8 c-3 -9 -8 -14 -10 -11 -3 3 -2 9 2 15 9 16 15 13 8 -4z
m2214 -33 c-13 -15 -30 -36 -36 -47 -11 -18 -11 -18 -5 5 8 29 57 90 63 77 2
-5 -8 -21 -22 -35z m-2441 13 c33 -14 73 -45 58 -45 -4 0 0 -6 11 -13 12 -10
14 -16 7 -21 -12 -7 -62 39 -62 57 0 6 -3 7 -7 4 -3 -4 -17 0 -30 8 -40 26
-29 -14 15 -52 l37 -34 -37 21 c-20 12 -39 17 -42 12 -3 -5 -9 -35 -15 -68
-11 -70 -2 -98 53 -162 20 -24 36 -48 36 -52 0 -5 33 -45 74 -89 41 -45 82
-96 91 -114 11 -22 -9 -6 -64 53 -44 47 -92 109 -106 138 -15 28 -31 52 -35
52 -4 0 -24 24 -44 53 l-36 52 15 85 c27 149 21 140 81 115z m1084 -55 c11 -7
5 -8 -20 -4 -43 8 -51 14 -19 14 13 0 31 -5 39 -10z m384 -42 c-6 -9 -56 -11
-78 -2 -29 11 -17 23 27 26 40 3 61 -7 51 -24z m413 0 c-3 -7 -5 -2 -5 12 0
14 2 19 5 13 2 -7 2 -19 0 -25z m453 -18 c19 0 30 6 33 18 4 13 5 11 6 -5 1
-19 -4 -23 -28 -23 -30 0 -41 -18 -41 -70 0 -31 -17 -50 -45 -50 -20 1 -20 1
0 12 29 16 35 28 35 71 l0 37 -48 0 c-26 0 -54 -6 -61 -12 -11 -11 -13 -10 -9
2 3 11 21 16 61 18 54 3 57 4 58 30 l2 27 4 -27 c4 -23 9 -28 33 -28z m-1780
-12 c24 -30 88 -34 138 -9 45 23 51 17 26 -30 -17 -34 -66 -59 -115 -59 -37 0
-84 31 -104 70 -17 32 -20 74 -6 65 5 -3 13 0 17 7 5 8 11 7 18 -6 6 -10 18
-27 26 -38z m88 36 c22 -7 3 -24 -27 -24 -15 0 -36 9 -46 20 -17 19 -16 19 21
14 22 -3 45 -8 52 -10z m918 5 c4 -8 9 -7 15 2 6 10 9 7 9 -11 0 -83 -112
-146 -195 -108 -20 9 -25 18 -23 43 2 31 3 32 30 23 15 -6 28 -15 28 -21 0 -6
6 -3 13 7 8 10 22 16 33 14 13 -3 26 7 42 29 24 35 36 40 48 22z m301 -106
c-2 -21 -4 -4 -4 37 0 41 2 58 4 38 2 -21 2 -55 0 -75z m-1690 75 c-3 -8 -6
-5 -6 6 -1 11 2 17 5 13 3 -3 4 -12 1 -19z m1169 -23 c19 -45 18 -46 -11 -33
-26 12 -41 41 -30 58 12 19 26 10 41 -25z m-561 -5 c3 -6 -1 -7 -9 -4 -18 7
-21 14 -7 14 6 0 13 -4 16 -10z m-34 -43 c-13 -12 -20 -15 -15 -7 12 22 28 39
33 34 3 -3 -6 -15 -18 -27z m-574 1 c-3 -8 -6 -5 -6 6 -1 11 2 17 5 13 3 -3 4
-12 1 -19z m950 -15 c17 -13 34 -32 38 -41 4 -12 0 -11 -17 5 -13 12 -45 31
-71 43 -26 12 -47 23 -47 26 0 13 67 -11 97 -33z m760 -30 c-3 -10 -5 -2 -5
17 0 19 2 27 5 18 2 -10 2 -26 0 -35z m-1693 -8 c5 -22 4 -26 -4 -15 -5 8 -10
24 -10 34 0 26 6 18 14 -19z m-670 -10 c21 -31 21 -57 0 -27 -18 26 -65 30
-88 7 -21 -21 -29 -3 -10 23 22 32 76 30 98 -3z m1572 -16 c30 -18 34 -26 34
-64 0 -40 -2 -43 -25 -41 -41 5 -55 24 -55 77 0 27 3 49 6 49 4 0 22 -9 40
-21z m744 -45 c-12 -30 -80 -118 -86 -111 -3 2 11 21 31 42 19 21 40 54 46 72
6 19 13 32 15 30 3 -2 0 -17 -6 -33z m529 9 c-13 -15 -27 -30 -31 -33 -4 -3
-8 -94 -10 -202 -2 -133 -7 -201 -15 -209 -6 -6 -41 -12 -77 -14 -37 -1 -69
-5 -73 -9 -3 -3 -10 -32 -14 -63 -8 -60 -30 -88 -102 -127 -31 -17 -31 -17 -9
1 85 66 89 71 95 124 9 72 27 89 97 89 31 0 61 5 68 12 8 8 12 66 12 195 l0
183 36 40 c20 22 39 40 42 40 3 0 -5 -12 -19 -27z m-976 -20 c-22 -17 -28 -16
-44 4 -8 9 -9 14 -3 10 7 -4 15 0 18 8 5 13 9 13 26 3 19 -12 19 -14 3 -25z
m-778 7 c3 -5 1 -10 -4 -10 -6 0 -11 5 -11 10 0 6 2 10 4 10 3 0 8 -4 11 -10z
m845 0 c0 -5 -2 -10 -4 -10 -3 0 -8 5 -11 10 -3 6 -1 10 4 10 6 0 11 -4 11
-10z m280 -20 c-29 -40 -53 -55 -120 -73 -66 -18 -180 -27 -180 -14 0 5 -7 7
-15 3 -8 -3 -15 -1 -15 5 0 6 -4 7 -10 4 -5 -3 -10 -3 -10 2 0 4 -14 16 -31
26 -18 10 -29 20 -25 24 3 4 -2 16 -11 27 -10 12 3 2 28 -21 39 -35 56 -42
104 -48 74 -10 176 0 214 19 16 9 40 29 53 45 30 39 46 40 18 1z m150 12 c0
-11 -8 -26 -19 -36 -18 -16 -18 -15 -7 19 12 38 26 47 26 17z m275 8 c-3 -5
-12 -10 -18 -10 -7 0 -6 4 3 10 19 12 23 12 15 0z m-1485 -20 c21 -13 3 -27
-45 -34 -22 -3 -32 -3 -22 0 9 3 17 10 17 15 0 6 5 7 10 4 6 -3 10 1 10 9 0
18 8 20 30 6z m780 -12 c8 2 12 2 9 -2 -4 -4 -16 -8 -28 -11 -11 -2 -26 -7
-31 -10 -6 -3 -10 -1 -10 4 0 6 8 11 18 12 10 0 12 3 5 6 -7 2 -13 9 -13 15 0
6 8 4 18 -4 9 -9 24 -13 32 -10z m-1933 -466 c15 -21 44 -54 65 -75 34 -34 40
-37 76 -31 23 4 48 1 61 -5 27 -15 161 -154 154 -161 -2 -3 -38 30 -79 73
l-74 77 -59 0 c-58 0 -60 1 -98 48 -89 107 -83 86 -81 314 l3 203 2 -203 c3
-204 3 -204 30 -240z m2267 248 c-50 -155 -73 -181 -29 -33 40 132 69 210 73
193 1 -9 -18 -81 -44 -160z m-1469 150 c3 -5 1 -10 -4 -10 -6 0 -11 5 -11 10
0 6 2 10 4 10 3 0 8 -4 11 -10z m278 -7 c-7 -2 -21 -2 -30 0 -10 3 -4 5 12 5
17 0 24 -2 18 -5z m1137 -8 c0 -2 -10 -9 -22 -15 -22 -11 -22 -10 -4 4 21 17
26 19 26 11z m868 -95 c22 -20 31 -57 12 -45 -5 3 -10 12 -10 20 0 18 -50 34
-76 24 -12 -4 -29 -18 -38 -31 -9 -12 -16 -19 -16 -14 0 4 9 21 21 37 25 36
74 40 107 9z m-2558 -10 c0 -11 -6 -20 -14 -20 -21 0 -31 21 -15 31 22 14 29
11 29 -11z m2158 8 c19 -19 14 -29 -8 -16 -15 10 -27 10 -50 1 -16 -6 -30 -8
-30 -4 0 15 25 31 50 31 14 0 31 -5 38 -12z m-2534 -7 c3 -5 -12 -11 -33 -13
-31 -3 -37 -1 -29 9 12 15 54 17 62 4z m2516 -15 c0 -3 -4 -8 -10 -11 -5 -3
-10 -1 -10 4 0 6 5 11 10 11 6 0 10 -2 10 -4z m406 -7 c4 -6 -1 -9 -13 -7 -11
2 -27 -3 -36 -10 -14 -12 -16 -11 -14 7 1 16 8 21 29 21 15 0 30 -5 34 -11z
m-1146 -32 c0 -2 -16 -19 -36 -38 -26 -24 -33 -28 -25 -12 12 23 61 64 61 50z
m50 -17 c0 -5 -13 -24 -28 -42 -15 -18 -36 -46 -46 -62 -21 -32 -42 -22 -33
16 12 45 107 124 107 88z m-794 -35 c38 -50 25 -53 -20 -5 -23 26 -31 40 -22
40 8 0 27 -16 42 -35z m-32 -15 c20 -22 36 -42 36 -44 0 -2 -10 -3 -21 -2 -12
1 -37 20 -57 44 -31 37 -32 42 -14 42 11 0 36 -18 56 -40z m-584 -45 c0 -3
-11 7 -25 23 -14 17 -25 33 -25 37 0 3 11 -7 25 -23 14 -17 25 -33 25 -37z
m165 45 c13 -6 -14 -8 -75 -8 -71 1 -85 3 -55 8 56 10 107 10 130 0z m383 -41
c15 -21 19 -35 12 -37 -14 -5 -80 57 -80 75 0 22 43 -2 68 -38z m876 14 c-60
-82 -62 -83 -67 -70 -7 20 9 52 43 80 45 38 57 33 24 -10z m599 22 c-3 -9 -8
-14 -10 -11 -3 3 -2 9 2 15 9 16 15 13 8 -4z m-460 -6 c44 -23 66 -52 73 -94
3 -24 2 -51 -3 -60 -7 -12 -10 -6 -11 26 -3 56 -25 89 -60 89 -19 0 -23 3 -13
9 11 7 7 12 -15 25 -21 11 -24 15 -11 16 10 0 28 -5 40 -11z m-2046 -91 c-2
-18 -4 -4 -4 32 0 36 2 50 4 33 2 -18 2 -48 0 -65z m260 40 c39 -42 55 -52 76
-50 36 4 67 -14 67 -40 0 -21 0 -21 -21 -2 -17 15 -23 16 -41 5 -18 -11 -20
-11 -15 4 4 9 3 13 -2 10 -5 -3 -29 16 -53 41 -68 73 -68 74 -87 74 -18 0 -56
-37 -110 -107 -34 -45 -51 -52 -70 -30 -8 11 -5 13 17 10 20 -3 31 2 42 20 8
14 33 46 54 71 54 63 78 62 143 -6z m518 6 c-21 -28 -27 -47 -28 -87 0 -49 0
-50 -9 -19 -11 41 4 94 35 122 32 30 32 24 2 -16z m192 4 c34 -38 35 -46 8
-64 -25 -16 -27 -16 -55 11 -36 34 -37 48 -7 63 31 15 31 15 54 -10z m1005 0
c-4 -17 -2 -20 12 -15 10 4 4 -8 -15 -28 -38 -40 -37 -39 -63 -20 -18 13 -18
15 4 49 15 25 29 36 45 36 19 0 22 -4 17 -22z m-1392 -18 c36 0 71 -4 78 -8
19 -13 62 -74 62 -90 0 -25 -23 -7 -34 28 -14 43 -46 60 -113 60 -58 0 -83 7
-83 23 0 7 4 7 12 -1 7 -7 40 -12 78 -12z m949 -21 c17 -6 31 -15 31 -20 0 -5
-12 -4 -27 2 -16 6 -57 14 -93 19 l-65 7 61 2 c34 0 75 -4 93 -10z m901 -19
c-6 -11 -7 -20 -3 -20 4 0 2 -4 -6 -9 -10 -7 -11 -13 -1 -32 10 -21 10 -22 -3
-6 -20 24 -61 22 -80 -5 -22 -32 -16 2 6 35 12 19 26 27 46 27 16 0 31 6 35
15 3 8 8 15 11 15 3 0 1 -9 -5 -20z m-913 -9 c7 -3 9 -11 5 -17 -8 -13 -94 -6
-86 7 3 5 0 9 -6 9 -6 0 -8 5 -5 10 6 10 67 4 92 -9z m1473 -53 c28 -30 25
-42 -3 -14 -18 17 -31 22 -55 18 -18 -2 -32 -8 -32 -12 0 -4 -7 -10 -15 -14
-22 -8 -14 17 10 31 31 19 72 15 95 -9z m-2173 -136 c10 -13 28 -24 40 -25 12
0 19 -6 16 -13 -9 -23 -47 1 -80 50 -18 27 -33 53 -33 60 0 6 9 -2 19 -19 11
-16 28 -40 38 -53z m1253 29 c-11 -23 -30 -51 -40 -61 -27 -27 -86 -27 -100
-1 -13 26 -13 52 1 29 23 -41 105 -7 138 56 23 43 24 21 1 -23z m-1605 19 c10
-11 16 -20 13 -20 -3 0 -13 9 -23 20 -10 11 -16 20 -13 20 3 0 13 -9 23 -20z
m1753 -22 c-2 -7 -11 -19 -20 -26 -10 -7 -18 -24 -18 -38 0 -20 5 -24 31 -24
16 0 28 -4 25 -9 -4 -5 3 -7 15 -4 11 3 23 13 26 22 10 33 26 60 39 65 10 4
10 -2 2 -25 -14 -39 -4 -48 25 -21 13 12 31 22 40 22 14 0 16 -7 12 -40 -4
-30 -1 -42 9 -46 9 -3 18 -14 21 -25 4 -10 14 -19 23 -19 11 0 13 -3 6 -8 -13
-8 -37 -52 -32 -57 2 -2 15 -6 30 -10 21 -5 33 -1 52 19 43 42 28 77 -45 107
-24 10 -39 18 -33 18 25 2 85 -31 100 -54 14 -21 15 -30 4 -58 -7 -17 -22 -39
-33 -48 -19 -15 -19 -17 -2 -42 9 -15 14 -27 9 -27 -4 0 -4 -3 -1 -7 4 -3 13
2 21 12 12 17 13 11 12 -48 -1 -79 -11 -87 -83 -67 l-44 13 31 28 c32 30 28
40 -6 14 -29 -22 -34 -18 -34 20 0 29 4 35 23 36 27 1 15 5 -37 14 l-39 6 37
26 c21 13 35 27 33 29 -3 3 -22 -6 -42 -21 -42 -28 -44 -28 -64 -16 -12 7 -10
14 8 36 38 49 21 125 -28 125 -27 0 -44 -26 -38 -57 10 -52 -70 -83 -121 -47
-26 18 -29 58 -7 111 22 53 18 65 -5 14 -11 -24 -20 -53 -20 -66 0 -18 -7 -24
-32 -28 -18 -3 -42 -7 -53 -9 -30 -5 -32 36 -3 71 13 15 30 38 38 51 23 35 54
62 58 50 4 -12 42 -14 42 -2 0 5 9 18 20 30 23 24 52 30 48 10z m-1463 -8 c3
-5 1 -10 -4 -10 -6 0 -11 5 -11 10 0 6 2 10 4 10 3 0 8 -4 11 -10z m2093 -7
c-21 -2 -55 -2 -75 0 -21 2 -4 4 37 4 41 0 58 -2 38 -4z m-2015 -102 c20 -45
32 -60 34 -48 3 10 -3 27 -13 38 -22 25 -7 24 31 -1 17 -11 40 -20 53 -20 39
0 25 -46 -20 -72 -21 -12 -41 -19 -44 -15 -10 10 17 38 29 30 6 -3 7 -1 3 5
-11 18 -30 14 -44 -9 -13 -20 -14 -20 -32 -4 -16 14 -24 15 -51 6 -18 -6 -40
-17 -48 -25 -9 -7 -43 -21 -76 -31 -33 -9 -88 -33 -122 -52 -34 -19 -66 -35
-70 -36 -4 -1 -8 -13 -8 -27 -1 -47 -15 -68 -56 -84 -21 -9 -46 -16 -53 -16
-8 0 -12 -7 -10 -17 4 -14 -21 -32 -108 -80 l-113 -62 -2 -50 c-3 -65 -27
-123 -47 -115 -20 8 -21 33 -1 40 8 4 15 12 15 20 0 17 -30 8 -48 -14 -7 -10
-12 -11 -12 -4 0 7 11 22 25 34 32 28 32 42 0 34 -23 -6 -25 -3 -32 36 -9 57
-11 54 37 57 12 1 17 6 14 14 -2 7 -1 24 4 38 13 35 -5 77 -42 95 l-31 15 25
-20 c14 -11 23 -22 20 -24 -30 -26 -80 -27 -80 -1 0 8 -9 14 -20 14 -16 0 -20
-7 -20 -37 0 -21 -5 -45 -10 -53 -7 -11 -4 -19 13 -32 26 -20 20 -32 -7 -13
-12 9 -20 31 -23 65 -4 44 -1 56 17 75 71 75 180 42 180 -55 l0 -43 34 6 c22
3 37 1 40 -6 2 -7 5 -2 5 11 1 12 -5 23 -11 23 -7 1 3 5 22 8 19 4 46 11 60
15 24 8 24 8 5 -7 -20 -16 -20 -16 3 -10 15 3 21 11 18 22 -2 9 -7 26 -11 38
-7 24 20 63 43 63 9 0 12 6 8 15 -12 31 11 60 57 73 62 18 89 50 87 99 -3 57
-2 61 20 83 14 14 27 18 50 14 33 -7 43 10 10 19 -11 3 -20 10 -20 17 0 14 41
3 52 -14 4 -6 8 -25 8 -42 0 -29 2 -31 33 -29 46 3 77 22 77 47 0 35 29 58 72
58 27 0 37 4 32 12 -5 7 -3 8 5 3 7 -4 27 -37 44 -74z m-919 13 c5 -13 3 -14
-6 -7 -7 6 -20 13 -28 16 -10 4 -8 6 6 6 12 1 25 -6 28 -15z m3003 -51 c-2
-16 -4 -5 -4 22 0 28 2 40 4 28 2 -13 2 -35 0 -50z m-932 17 c-13 -14 -16 -29
-12 -55 6 -40 2 -42 -33 -18 -49 33 -54 63 -12 63 16 0 37 9 47 20 10 11 20
18 23 15 3 -3 -3 -14 -13 -25z m-2058 -12 c-3 -8 -6 -5 -6 6 -1 11 2 17 5 13
3 -3 4 -12 1 -19z m234 5 c13 -17 13 -17 -6 -3 -11 8 -22 16 -24 17 -2 2 0 3
6 3 6 0 17 -8 24 -17z m833 -33 c7 -41 -8 -21 -18 25 -5 19 -4 26 2 20 5 -5
12 -26 16 -45z m935 -47 l48 -32 2 -70 c2 -76 -13 -119 -53 -153 -47 -39 -110
-70 -174 -84 -37 -7 -87 -20 -112 -28 l-45 -15 60 0 c63 -1 125 13 213 47 28
11 52 17 52 12 0 -18 -81 -85 -155 -127 -118 -67 -243 -106 -335 -106 -77 0
-240 42 -317 81 l-33 18 110 28 c61 15 117 25 125 22 20 -7 19 3 -2 27 -17 19
-17 19 7 12 14 -4 39 -11 56 -17 26 -9 37 -7 78 16 27 15 50 25 52 24 1 -2 -6
-23 -17 -47 -11 -24 -17 -46 -15 -48 5 -6 71 82 127 172 61 97 111 165 121
165 11 0 10 -5 -7 -47 -8 -20 -14 -38 -11 -40 2 -2 13 20 26 49 33 79 38 83
66 53 13 -15 24 -34 25 -43 0 -9 5 -3 10 15 7 22 20 37 44 49 19 9 35 19 35
23 0 3 -11 16 -24 29 -17 16 -26 19 -29 10 -3 -8 -6 -5 -7 7 -3 32 1 58 14 80
10 18 11 17 14 -15 3 -30 10 -41 51 -67z m-1606 70 c-7 -2 -19 -2 -25 0 -7 3
-2 5 12 5 14 0 19 -2 13 -5z m1991 -9 c19 -50 -13 -112 -52 -100 -20 7 -21 9
-6 23 11 11 14 27 11 49 -3 18 -3 35 0 38 12 12 41 6 47 -10z m-2106 -87 c19
-3 14 -4 -15 -6 -23 0 -45 3 -48 9 -3 6 1 7 9 4 13 -5 16 3 18 37 l1 44 4 -42
c4 -36 7 -42 31 -46z m2712 47 c0 -8 -5 -12 -10 -9 -6 4 -8 11 -5 16 9 14 15
11 15 -7z m-812 -39 c-3 -3 -9 2 -12 12 -6 14 -5 15 5 6 7 -7 10 -15 7 -18z
m197 -56 c64 -31 70 -36 68 -63 -3 -39 -16 -51 -40 -36 -14 9 -14 10 -1 6 15
-4 28 11 28 34 0 11 -49 45 -77 54 -16 5 -23 2 -27 -12 -8 -23 -38 -25 -34 -3
2 9 8 16 15 16 6 0 15 3 19 8 4 4 -2 7 -14 7 -12 0 -22 -4 -22 -8 0 -5 -11
-14 -25 -20 -20 -9 -26 -9 -24 1 3 27 -2 37 -21 37 -11 0 -20 5 -20 11 0 22
103 3 175 -32z m-1655 8 c-30 -13 -81 -37 -112 -54 -32 -17 -58 -28 -58 -24 0
6 148 84 180 94 44 15 37 3 -10 -16z m1658 -66 c-2 -22 -6 -27 -21 -23 -10 3
-15 8 -10 11 5 3 12 14 16 24 10 26 18 20 15 -12z m-30 -74 c3 -21 0 -26 -12
-21 -19 7 -22 58 -3 52 6 -3 13 -17 15 -31z m-98 3 c0 -5 11 -10 24 -10 14 0
27 -3 30 -8 2 -4 -13 -6 -35 -4 -25 3 -39 9 -39 18 0 8 5 14 10 14 6 0 10 -4
10 -10z m-1703 -67 c-3 -10 -5 -2 -5 17 0 19 2 27 5 18 2 -10 2 -26 0 -35z
m1884 -14 c-5 -13 -10 -19 -10 -12 -1 15 10 45 15 40 3 -2 0 -15 -5 -28z m213
0 c20 -12 36 -23 36 -25 0 -5 -44 18 -70 35 -27 19 -2 11 34 -10z m-2519 1 c3
-6 -3 -22 -14 -36 -11 -15 -18 -30 -15 -35 3 -5 0 -9 -5 -9 -11 0 -15 13 -12
39 2 7 -2 10 -8 6 -19 -11 -12 3 11 25 24 22 34 25 43 10z m-94 -17 c0 -15 2
-15 9 2 8 18 9 17 9 -7 1 -15 -3 -29 -8 -32 -12 -8 -44 31 -36 43 10 17 25 13
26 -6z m2745 -8 c-1 -8 -6 -18 -11 -22 -4 -5 -5 -2 0 6 6 11 4 13 -11 8 -18
-7 -18 -7 0 8 24 18 25 18 22 0z m-61 -23 c-3 -3 -11 0 -18 7 -9 10 -8 11 6 5
10 -3 15 -9 12 -12z m-367 -4 c7 -7 12 -30 11 -52 -1 -45 -4 -41 -14 16 -6 36
-7 37 -53 41 l-47 3 46 2 c25 1 50 -3 57 -10z m-118 -18 c-6 -11 -8 -32 -5
-47 3 -16 2 -21 -1 -13 -4 8 -10 20 -15 26 -5 6 -2 20 7 32 19 27 28 29 14 2z
m535 0 c3 -6 -1 -7 -9 -4 -18 7 -21 14 -7 14 6 0 13 -4 16 -10z m-968 -6 c-3
-3 -12 -4 -19 -1 -8 3 -5 6 6 6 11 1 17 -2 13 -5z m-1031 -30 c12 -17 17 -48
18 -97 1 -61 -1 -73 -15 -73 -9 0 -15 6 -12 12 5 14 -59 35 -91 30 -12 -2 -15
-1 -7 1 9 3 6 9 -10 17 -50 24 -23 116 34 116 35 0 67 -28 67 -58 0 -32 -8
-45 -35 -60 -27 -16 -3 -15 27 1 20 10 24 19 23 54 -2 52 -17 71 -63 76 l-37
4 42 1 c36 2 45 -2 59 -24z m2061 6 c3 -11 10 -20 17 -20 15 0 37 -48 25 -56
-20 -12 -7 -26 21 -22 34 5 39 -6 11 -24 -15 -9 -17 -15 -9 -25 6 -7 6 -13 1
-13 -8 0 -93 159 -93 174 0 15 22 4 27 -14z m-522 -70 c28 0 57 6 64 13 11 10
13 9 9 -3 -8 -27 -148 -25 -148 2 0 9 3 9 12 0 7 -7 35 -12 63 -12z m114 -90
c-1 -39 -2 -69 -3 -68 -1 2 -8 12 -16 22 -10 13 -10 17 -2 12 9 -5 12 7 12 48
0 31 2 56 5 56 3 0 5 -32 4 -70z m-2220 -7 c-12 -56 -34 -113 -45 -113 -2 0 0
8 5 18 5 9 9 19 8 22 -2 10 37 139 41 135 2 -2 -2 -30 -9 -62z m2011 31 c0 -8
-4 -12 -10 -9 -5 3 -10 10 -10 16 0 5 5 9 10 9 6 0 10 -7 10 -16z m144 -23 c3
-5 -18 -11 -46 -13 -38 -4 -57 -12 -70 -28 -10 -12 -18 -18 -18 -14 1 13 34
50 50 57 24 9 78 8 84 -2z m-1766 -45 c-7 -8 -15 -12 -17 -11 -5 6 10 25 20
25 5 0 4 -6 -3 -14z m1812 -101 c-9 -11 -30 -15 -79 -13 l-66 1 62 6 c34 3 68
12 74 18 17 17 25 7 9 -12z m-2261 -39 c-9 -8 -10 -7 -5 7 3 10 7 24 7 30 1 7
3 4 6 -7 3 -10 -1 -23 -8 -30z m-6 -31 c-3 -9 -8 -14 -10 -11 -3 3 -2 9 2 15
9 16 15 13 8 -4z"/>
<path d="M2317 2428 c-106 -44 -126 -65 -27 -29 58 21 155 72 135 70 -5 0 -54
-19 -108 -41z"/>
<path d="M2541 2444 c0 -11 3 -14 6 -6 3 7 2 16 -1 19 -3 4 -6 -2 -5 -13z"/>
<path d="M1930 2416 c0 -2 7 -7 16 -10 8 -3 12 -2 9 4 -6 10 -25 14 -25 6z"/>
<path d="M3030 2075 c-7 -9 -8 -15 -2 -15 5 0 12 7 16 15 3 8 4 15 2 15 -2 0
-9 -7 -16 -15z"/>
<path d="M1480 1944 c0 -13 18 -39 24 -34 2 3 -2 14 -10 24 -8 11 -14 16 -14
10z"/>
<path d="M2420 1910 c0 -5 5 -10 10 -10 6 0 10 5 10 10 0 6 -4 10 -10 10 -5 0
-10 -4 -10 -10z"/>
<path d="M1005 840 c-3 -5 1 -10 9 -10 9 0 16 5 16 10 0 6 -4 10 -9 10 -6 0
-13 -4 -16 -10z"/>
<path d="M942 793 c5 -25 28 -28 28 -4 0 12 -6 21 -16 21 -9 0 -14 -7 -12 -17z"/>
<path d="M637 485 c-4 -8 -2 -17 3 -20 6 -4 10 -4 10 -1 0 2 3 11 6 20 3 9 2
16 -4 16 -5 0 -12 -7 -15 -15z"/>
<path d="M630 351 c0 -5 5 -13 10 -16 6 -3 10 -2 10 4 0 5 -4 13 -10 16 -5 3
-10 2 -10 -4z"/>
<path d="M1250 390 c0 -5 5 -10 10 -10 6 0 10 5 10 10 0 6 -4 10 -10 10 -5 0
-10 -4 -10 -10z"/>
</g>
</svg>
